<svg width="900" height="560" viewBox="0 0 900 560" fill="none" xmlns="http://www.w3.org/2000/svg">
  <rect x="20" y="20" width="860" height="520" rx="24" fill="#F8FAFC" stroke="#E2E8F0" stroke-width="4"/>
  <rect x="60" y="80" width="260" height="320" rx="18" fill="#E2E8F0"/>
  <rect x="360" y="90" width="480" height="32" rx="8" fill="#CBD5F5"/>
  <rect x="360" y="150" width="420" height="20" rx="6" fill="#E2E8F0"/>
  <rect x="360" y="190" width="360" height="20" rx="6" fill="#E2E8F0"/>
  <rect x="360" y="230" width="300" height="20" rx="6" fill="#E2E8F0"/>
  <rect x="360" y="290" width="420" height="20" rx="6" fill="#E2E8F0"/>
  <rect x="360" y="330" width="280" height="20" rx="6" fill="#E2E8F0"/>
  <rect x="360" y="370" width="360" height="20" rx="6" fill="#E2E8F0"/>
  <rect x="60" y="420" width="780" height="60" rx="12" fill="#DBEAFE"/>
  <text x="60" y="65" font-family="Arial, sans-serif" font-size="24" fill="#64748B">CÉDULA (MOCK)</text>
  <text x="380" y="112" font-family="Arial, sans-serif" font-size="16" fill="#475569">NOMBRES Y APELLIDOS</text>
  <text x="380" y="170" font-family="Arial, sans-serif" font-size="16" fill="#64748B">NÚMERO DE CÉDULA</text>
  <text x="380" y="210" font-family="Arial, sans-serif" font-size="16" fill="#64748B">FECHA DE NACIMIENTO</text>
  <text x="380" y="250" font-family="Arial, sans-serif" font-size="16" fill="#64748B">FECHA DE EMISIÓN</text>
  <text x="380" y="310" font-family="Arial, sans-serif" font-size="16" fill="#64748B">DOMICILIO</text>
  <text x="380" y="350" font-family="Arial, sans-serif" font-size="16" fill="#64748B">PROFESIÓN</text>
  <text x="380" y="390" font-family="Arial, sans-serif" font-size="16" fill="#64748B">FIRMA</text>
</svg>
